<svg xmlns="http://www.w3.org/2000/svg" width="49" height="49" fill="none" viewBox="0 0 49 49"><path fill="url(#paint0_radial_22_988)" fill-rule="evenodd" d="M24.144 0.519531C10.6791 0.519531 0.238281 10.3866 0.238281 23.7081C0.238281 30.6766 3.09502 36.7009 7.74469 40.8605C8.13316 41.2071 8.37222 41.6972 8.38417 42.2231L8.51565 46.4784C8.55749 47.835 9.95597 48.7195 11.1991 48.1697L15.9444 46.0779C16.3448 45.8986 16.799 45.8688 17.2233 45.9823C19.4047 46.58 21.7236 46.9027 24.144 46.9027C37.609 46.9027 48.0498 37.0356 48.0498 23.7141C48.0498 10.3926 37.609 0.519531 24.144 0.519531Z" clip-rule="evenodd"/><path fill="#fff" fill-rule="evenodd" d="M9.78773 30.4915L16.81 19.3514C17.9276 17.5764 20.3182 17.1402 21.9976 18.3952L27.5856 22.5847C28.0995 22.9672 28.8048 22.9672 29.3128 22.5787L36.855 16.8533C37.8591 16.0883 39.1739 17.2955 38.5045 18.3653L31.4762 29.4994C30.3586 31.2744 27.9681 31.7107 26.2887 30.4557L20.7007 26.2662C20.1867 25.8837 19.4815 25.8837 18.9735 26.2722L11.4313 31.9976C10.4272 32.7626 9.11239 31.5613 9.78773 30.4915Z" clip-rule="evenodd"/><defs><radialGradient id="paint0_radial_22_988" cx="0" cy="0" r="1" gradientTransform="translate(9.442 48.0707) scale(52.0954 52.0953)" gradientUnits="userSpaceOnUse"><stop stop-color="#09F"/><stop offset=".61" stop-color="#A033FF"/><stop offset=".935" stop-color="#FF5280"/><stop offset="1" stop-color="#FF7061"/></radialGradient></defs></svg>