<svg width="50" height="50" viewBox="0 0 50 50" fill="none" xmlns="http://www.w3.org/2000/svg">
<path d="M44.9379 23.2688C47.5265 23.2688 49.625 21.1703 49.625 18.5817C49.625 15.993 47.5263 13.8945 44.9377 13.8945C42.3489 13.8945 40.25 15.9932 40.25 18.582V23.2688H44.9379ZM31.8125 23.2688C34.4013 23.2688 36.5 21.1701 36.5 18.5813V5.45703C36.5 2.8682 34.4013 0.769531 31.8125 0.769531C29.2237 0.769531 27.125 2.8682 27.125 5.45703V18.5813C27.125 21.1701 29.2237 23.2688 31.8125 23.2688Z" fill="#2EB67D"/>
<path d="M5.56211 27.0205C2.97348 27.0205 0.875 29.119 0.875 31.7076C0.875 34.2963 2.97369 36.3948 5.56229 36.3948C8.15112 36.3948 10.25 34.2961 10.25 31.7073V27.0205H5.56211ZM18.6875 27.0205C16.0987 27.0205 14 29.1192 14 31.708V44.8323C14 47.4211 16.0987 49.5198 18.6875 49.5198C21.2763 49.5198 23.375 47.4211 23.375 44.8323V31.708C23.375 29.1192 21.2763 27.0205 18.6875 27.0205Z" fill="#E01E5A"/>
<path d="M27.126 44.8324C27.126 47.421 29.2245 49.5195 31.8131 49.5195C34.4017 49.5195 36.5002 47.4208 36.5002 44.8322C36.5002 42.2434 34.4015 40.1445 31.8127 40.1445H27.126V44.8324ZM27.126 31.707C27.126 34.2958 29.2247 36.3945 31.8135 36.3945H44.9377C47.5265 36.3945 49.6252 34.2958 49.6252 31.707C49.6252 29.1182 47.5265 27.0195 44.9377 27.0195H31.8135C29.2247 27.0195 27.126 29.1182 27.126 31.707Z" fill="#ECB22E"/>
<path d="M23.3743 5.45664C23.3743 2.86801 21.2757 0.769531 18.6871 0.769531C16.0985 0.769531 14 2.86822 14 5.45682C14 8.04567 16.0987 10.1445 18.6875 10.1445H23.3743V5.45664ZM23.3743 18.582C23.3743 15.9932 21.2756 13.8945 18.6868 13.8945H5.5625C2.97367 13.8945 0.875 15.9932 0.875 18.582C0.875 21.1708 2.97367 23.2695 5.5625 23.2695H18.6868C21.2756 23.2695 23.3743 21.1708 23.3743 18.582Z" fill="#36C5F0"/>
</svg>
