<svg width="49" height="50" viewBox="0 0 49 50" fill="none" xmlns="http://www.w3.org/2000/svg">
<path fill-rule="evenodd" clip-rule="evenodd" d="M24.3992 0.519531C10.9724 0.519531 0.0507812 11.4442 0.0507812 24.8748C0.0507812 30.2012 1.76849 35.1409 4.68848 39.1503L1.65377 48.1992L11.0153 45.2073C14.8656 47.7559 19.4605 49.2305 24.4133 49.2305C37.8401 49.2305 48.7617 38.3053 48.7617 24.8752C48.7617 11.4447 37.8401 0.519934 24.4133 0.519934L24.3992 0.519531ZM17.5998 12.8909C17.1275 11.7599 16.7696 11.717 16.0541 11.6879C15.8105 11.6738 15.539 11.6597 15.2381 11.6597C14.3073 11.6597 13.3341 11.9316 12.7471 12.5329C12.0317 13.2631 10.2566 14.9668 10.2566 18.4606C10.2566 21.9544 12.8045 25.3334 13.1479 25.8062C13.5058 26.2782 18.1152 33.552 25.2722 36.5164C30.8689 38.8359 32.5297 38.6209 33.8035 38.349C35.6642 37.9481 37.9976 36.573 38.5846 34.9125C39.1716 33.2513 39.1716 31.8337 38.9995 31.5331C38.8278 31.2324 38.3551 31.0611 37.6397 30.7027C36.9242 30.3446 33.4455 28.6264 32.7871 28.3973C32.1427 28.154 31.5274 28.2401 31.041 28.9275C30.3539 29.8868 29.6813 30.8607 29.1371 31.4474C28.7077 31.9057 28.0059 31.963 27.4193 31.7194C26.632 31.3904 24.4279 30.6166 21.7079 28.1969C19.6035 26.3214 18.1722 23.9878 17.7573 23.2863C17.342 22.5706 17.7145 22.1548 18.0433 21.7685C18.4012 21.3244 18.7447 21.0096 19.1026 20.5942C19.4605 20.1792 19.6609 19.9642 19.89 19.4773C20.1336 19.0049 19.9614 18.518 19.7897 18.1599C19.618 17.8019 18.1867 14.3081 17.5998 12.8909Z" fill="#67C15E"/>
</svg>
