<svg width="716" height="251" viewBox="0 0 716 251" fill="none" xmlns="http://www.w3.org/2000/svg">
<g filter="url(#filter0_b_217_35)">
<rect width="716" height="250.893" rx="30" fill="black" fill-opacity="0.2"/>
<rect x="40" y="40" width="49.4303" height="46.8933" rx="10" fill="white"/>
<path d="M69.4303 76.6543L64.7151 81.8933L60 76.6543L62.1166 54.0181L60.5239 48.4508L64.7151 45L68.9064 48.4508L67.3137 54.0181L69.4303 76.6543Z" fill="black"/>
<path d="M123.159 57.9467H127.326V75.4467H123.159V68.4258H114.472V75.4467H110.326V57.9467H114.472V64.9675H123.159V57.9467ZM137.538 76.03C132.142 76.03 129.101 73.4883 129.101 68.155V57.9467H133.288V68.0508C133.288 70.8425 134.684 72.53 137.538 72.53C140.392 72.53 141.809 70.8425 141.809 68.0508V57.9467H145.976V68.155C145.976 73.4883 142.934 76.03 137.538 76.03ZM147.753 75.4467V57.9467H153.065L157.399 70.2175H157.711L162.045 57.9467H167.357V75.4467H163.378V64.905H163.024L159.17 75.4467H155.94L152.086 64.905H151.732V75.4467H147.753ZM183.598 75.4467L182.515 72.5092H173.89L172.806 75.4467H168.515L175.285 57.9467H181.119L187.91 75.4467H183.598ZM175.056 69.3633H181.348L178.598 61.8842H177.806L175.056 69.3633ZM196.766 76.03C191.058 76.03 187.162 72.1967 187.162 66.6967C187.162 61.1967 191.058 57.3633 196.766 57.3633C202.495 57.3633 206.391 61.1967 206.391 66.6967C206.391 72.1967 202.495 76.03 196.766 76.03ZM196.766 72.4258C199.891 72.4258 202.266 70.1342 202.266 66.6967C202.266 63.2592 199.891 60.9675 196.766 60.9675C193.662 60.9675 191.266 63.2592 191.266 66.6967C191.266 70.1342 193.662 72.4258 196.766 72.4258ZM207.86 75.4467V57.9467H212.006V75.4467H207.86ZM221.835 57.9467C228.626 57.9467 231.21 61.7175 231.21 66.6967C231.21 71.6758 228.626 75.4467 221.835 75.4467H213.793V57.9467H221.835ZM221.814 71.9467C225.21 71.9467 227.043 70.0717 227.043 66.6967C227.043 63.3217 225.21 61.4467 221.814 61.4467H217.98L217.939 71.9467H221.814ZM252.494 75.4467L251.411 72.5092H242.786L241.703 75.4467H237.411L244.182 57.9467H250.015L256.807 75.4467H252.494ZM243.953 69.3633H250.244L247.494 61.8842H246.703L243.953 69.3633ZM257.958 75.4467V57.9467H262.104V75.4467H257.958Z" fill="white"/>
<path d="M40.36 158.333L60.92 131.533C61.2667 131.107 61.7067 130.893 62.24 130.893H66.04C66.36 130.893 66.52 131.053 66.52 131.373V158.413C66.52 158.733 66.36 158.893 66.04 158.893H62.24C61.7067 158.893 61.2667 158.68 60.92 158.253L54 149.213L47.04 158.253C46.6933 158.68 46.2533 158.893 45.72 158.893H40.64C40.5067 158.893 40.4 158.84 40.32 158.733C40.24 158.6 40.2533 158.467 40.36 158.333ZM57.32 144.893L61.44 150.253V139.533L57.32 144.893ZM82.1859 135.413L85.1459 131.533C85.4926 131.107 85.9326 130.893 86.4659 130.893H100.146C100.279 130.893 100.386 130.947 100.466 131.053C100.573 131.16 100.626 131.28 100.626 131.413V137.453C100.626 137.693 100.546 137.92 100.386 138.133L88.3459 153.853H100.146C100.279 153.853 100.386 153.907 100.466 154.013C100.573 154.093 100.626 154.2 100.626 154.333V158.413C100.626 158.547 100.573 158.667 100.466 158.773C100.386 158.88 100.279 158.933 100.146 158.933H83.5859C83.4526 158.933 83.3326 158.88 83.2259 158.773C83.1459 158.667 83.1059 158.547 83.1059 158.413V152.013L95.4259 135.973H82.4659C82.3326 135.973 82.2259 135.92 82.1459 135.813C82.0659 135.68 82.0793 135.547 82.1859 135.413ZM103.737 144.253L113.497 131.533C113.791 131.107 114.217 130.893 114.777 130.893H119.897C120.031 130.893 120.124 130.96 120.177 131.093C120.257 131.227 120.257 131.36 120.177 131.493L108.577 146.533H121.937C122.257 146.533 122.417 146.707 122.417 147.053V158.413C122.417 158.76 122.257 158.933 121.937 158.933H117.817C117.497 158.933 117.337 158.76 117.337 158.413V151.653H103.857C103.724 151.653 103.604 151.6 103.497 151.493C103.417 151.387 103.377 151.267 103.377 151.133V145.253C103.377 144.853 103.497 144.52 103.737 144.253ZM138.467 158.413V131.373C138.467 131.24 138.507 131.133 138.587 131.053C138.694 130.947 138.814 130.893 138.947 130.893H143.067C143.414 130.893 143.587 131.053 143.587 131.373V142.373H155.067V131.373C155.067 131.24 155.107 131.133 155.187 131.053C155.294 130.947 155.414 130.893 155.547 130.893H159.707C159.84 130.893 159.947 130.947 160.027 131.053C160.134 131.133 160.187 131.24 160.187 131.373V158.413C160.187 158.547 160.134 158.667 160.027 158.773C159.947 158.853 159.84 158.893 159.707 158.893H155.547C155.414 158.893 155.294 158.853 155.187 158.773C155.107 158.667 155.067 158.547 155.067 158.413V147.453H143.587V158.413C143.587 158.733 143.414 158.893 143.067 158.893H138.947C138.814 158.893 138.694 158.853 138.587 158.773C138.507 158.667 138.467 158.547 138.467 158.413ZM165.928 131.293C165.928 131.16 165.968 131.053 166.048 130.973C166.154 130.867 166.274 130.813 166.408 130.813H187.528C187.661 130.813 187.768 130.867 187.848 130.973C187.954 131.053 188.008 131.16 188.008 131.293V137.173C188.008 137.547 187.888 137.88 187.648 138.173L181.328 146.453L190.368 158.253C190.448 158.387 190.448 158.52 190.368 158.653C190.314 158.76 190.221 158.813 190.088 158.813H185.008C184.474 158.813 184.034 158.6 183.688 158.173L174.928 146.773C174.741 146.56 174.741 146.36 174.928 146.173L182.808 135.893H171.048V158.333C171.048 158.653 170.874 158.813 170.528 158.813H166.408C166.274 158.813 166.154 158.773 166.048 158.693C165.968 158.587 165.928 158.467 165.928 158.333V131.293ZM192.902 139.093C192.902 137.84 193.156 136.68 193.662 135.613C194.196 134.547 194.902 133.627 195.782 132.853C196.689 132.08 197.729 131.467 198.902 131.013C200.102 130.56 201.369 130.333 202.702 130.333C204.782 130.333 206.582 130.707 208.102 131.453C209.649 132.173 210.809 133.013 211.582 133.973C211.769 134.213 211.756 134.427 211.542 134.613L208.782 137.493C208.676 137.6 208.542 137.653 208.382 137.653C208.249 137.653 208.129 137.587 208.022 137.453C207.782 137.187 207.476 136.92 207.102 136.653C206.756 136.387 206.342 136.147 205.862 135.933C205.409 135.693 204.916 135.507 204.382 135.373C203.849 135.24 203.302 135.173 202.742 135.173C202.076 135.173 201.462 135.28 200.902 135.493C200.369 135.68 199.916 135.933 199.542 136.253C199.169 136.573 198.876 136.947 198.662 137.373C198.449 137.8 198.342 138.253 198.342 138.733C198.342 139.507 198.596 140.173 199.102 140.733C199.609 141.293 200.369 141.68 201.382 141.893L205.302 142.653C206.582 142.893 207.702 143.28 208.662 143.813C209.649 144.32 210.462 144.933 211.102 145.653C211.769 146.373 212.276 147.187 212.622 148.093C212.969 148.973 213.142 149.907 213.142 150.893C213.142 151.96 212.916 153.013 212.462 154.053C212.036 155.093 211.382 156.027 210.502 156.853C209.649 157.68 208.596 158.347 207.342 158.853C206.089 159.333 204.649 159.573 203.022 159.573C201.876 159.573 200.796 159.453 199.782 159.213C198.796 158.973 197.889 158.667 197.062 158.293C196.262 157.893 195.556 157.467 194.942 157.013C194.329 156.533 193.822 156.067 193.422 155.613C193.236 155.427 193.236 155.213 193.422 154.973L195.942 151.733C196.022 151.6 196.129 151.533 196.262 151.533C196.422 151.507 196.556 151.547 196.662 151.653C197.036 152 197.449 152.36 197.902 152.733C198.356 153.08 198.849 153.4 199.382 153.693C199.916 153.987 200.489 154.227 201.102 154.413C201.716 154.6 202.369 154.693 203.062 154.693C204.529 154.693 205.649 154.373 206.422 153.733C207.196 153.093 207.582 152.267 207.582 151.253C207.582 150.453 207.289 149.76 206.702 149.173C206.142 148.56 205.302 148.147 204.182 147.933L200.262 147.133C198.022 146.68 196.236 145.76 194.902 144.373C193.569 142.987 192.902 141.227 192.902 139.093ZM228.428 158.413V131.373C228.428 131.24 228.468 131.133 228.548 131.053C228.654 130.947 228.774 130.893 228.908 130.893H232.708C233.241 130.893 233.681 131.107 234.028 131.533L254.628 158.333C254.708 158.467 254.708 158.6 254.628 158.733C254.574 158.84 254.468 158.893 254.308 158.893H249.228C248.694 158.893 248.254 158.68 247.908 158.253L240.988 149.213L234.028 158.253C233.681 158.68 233.241 158.893 232.708 158.893H228.908C228.774 158.893 228.654 158.853 228.548 158.773C228.468 158.667 228.428 158.547 228.428 158.413ZM233.548 139.533V150.253L237.668 144.893L233.548 139.533ZM254.613 144.773C254.613 142.72 254.986 140.813 255.733 139.053C256.506 137.293 257.533 135.76 258.813 134.453C260.119 133.147 261.653 132.133 263.413 131.413C265.173 130.667 267.066 130.307 269.093 130.333C271.253 130.36 273.239 130.8 275.053 131.653C276.893 132.507 278.479 133.68 279.813 135.173C279.893 135.28 279.919 135.4 279.893 135.533C279.893 135.667 279.839 135.773 279.733 135.853L276.573 138.533C276.466 138.613 276.346 138.653 276.213 138.653C276.079 138.627 275.973 138.56 275.893 138.453C275.013 137.44 273.973 136.64 272.773 136.053C271.573 135.44 270.279 135.147 268.893 135.173C267.639 135.2 266.453 135.48 265.333 136.013C264.213 136.52 263.239 137.227 262.413 138.133C261.586 139.013 260.933 140.04 260.453 141.213C259.973 142.387 259.733 143.64 259.733 144.973C259.733 146.307 259.986 147.56 260.493 148.733C260.999 149.907 261.679 150.933 262.533 151.813C263.386 152.693 264.373 153.387 265.493 153.893C266.613 154.373 267.813 154.613 269.093 154.613C270.426 154.587 271.679 154.28 272.853 153.693C274.026 153.107 275.039 152.307 275.893 151.293C275.973 151.187 276.079 151.133 276.213 151.133C276.346 151.107 276.466 151.147 276.573 151.253L279.733 153.933C279.839 154.013 279.893 154.12 279.893 154.253C279.919 154.387 279.893 154.507 279.813 154.613C278.453 156.133 276.839 157.333 274.973 158.213C273.106 159.067 271.066 159.48 268.853 159.453C266.853 159.453 264.973 159.08 263.213 158.333C261.479 157.56 259.973 156.52 258.692 155.213C257.413 153.88 256.413 152.32 255.693 150.533C254.973 148.747 254.613 146.827 254.613 144.773ZM283.004 131.293C283.004 131.16 283.044 131.053 283.124 130.973C283.231 130.867 283.351 130.813 283.484 130.813H300.844C301.378 130.813 301.818 131.027 302.164 131.453L305.124 135.333C305.231 135.467 305.244 135.6 305.164 135.733C305.111 135.84 305.004 135.893 304.844 135.893H295.924V158.333C295.924 158.653 295.764 158.813 295.444 158.813H291.324C291.004 158.813 290.844 158.653 290.844 158.333V135.893H283.484C283.351 135.893 283.231 135.853 283.124 135.773C283.044 135.667 283.004 135.547 283.004 135.413V131.293ZM308.791 130.893H312.911C313.257 130.893 313.431 131.053 313.431 131.373V158.413C313.431 158.733 313.257 158.893 312.911 158.893H308.791C308.657 158.893 308.537 158.853 308.431 158.773C308.351 158.667 308.311 158.547 308.311 158.413V131.373C308.311 131.24 308.351 131.133 308.431 131.053C308.537 130.947 308.657 130.893 308.791 130.893ZM319.689 130.813H323.809C323.942 130.813 324.062 130.867 324.169 130.973C324.276 131.053 324.329 131.16 324.329 131.293V150.173L338.689 131.453C339.036 131.027 339.476 130.813 340.009 130.813H345.089C345.249 130.813 345.356 130.88 345.409 131.013C345.489 131.147 345.489 131.267 345.409 131.373L324.809 158.173C324.462 158.6 324.022 158.813 323.489 158.813H319.689C319.556 158.813 319.436 158.773 319.329 158.693C319.249 158.587 319.209 158.467 319.209 158.333V131.293C319.209 131.16 319.249 131.053 319.329 130.973C319.436 130.867 319.556 130.813 319.689 130.813ZM348.584 131.373C348.584 131.24 348.624 131.133 348.704 131.053C348.811 130.947 348.931 130.893 349.064 130.893H366.344C366.664 130.893 366.824 131.053 366.824 131.373V135.493C366.824 135.813 366.664 135.973 366.344 135.973H353.704V142.373H363.704C364.024 142.373 364.184 142.533 364.184 142.853V146.933C364.184 147.28 364.024 147.453 363.704 147.453H353.704V153.813H367.584C367.744 153.813 367.851 153.88 367.904 154.013C367.984 154.147 367.971 154.267 367.864 154.373L364.904 158.253C364.557 158.68 364.117 158.893 363.584 158.893H349.064C348.931 158.893 348.811 158.853 348.704 158.773C348.624 158.667 348.584 158.547 348.584 158.413V131.373ZM381.136 144.773C381.136 142.72 381.509 140.813 382.256 139.053C383.029 137.267 384.056 135.733 385.336 134.453C386.643 133.147 388.176 132.133 389.936 131.413C391.696 130.667 393.589 130.307 395.616 130.333C397.643 130.36 399.536 130.76 401.296 131.533C403.056 132.307 404.576 133.36 405.856 134.693C407.163 136.027 408.189 137.587 408.936 139.373C409.683 141.133 410.043 143.013 410.016 145.013C409.989 147.04 409.589 148.933 408.816 150.693C408.043 152.453 406.989 153.987 405.656 155.293C404.349 156.6 402.816 157.627 401.056 158.373C399.296 159.093 397.403 159.453 395.376 159.453C393.376 159.453 391.496 159.08 389.736 158.333C388.003 157.56 386.496 156.52 385.216 155.213C383.936 153.88 382.936 152.32 382.216 150.533C381.496 148.747 381.136 146.827 381.136 144.773ZM386.256 144.973C386.256 146.28 386.509 147.52 387.016 148.693C387.523 149.867 388.203 150.893 389.056 151.773C389.909 152.653 390.896 153.347 392.016 153.853C393.136 154.36 394.336 154.613 395.616 154.613C396.869 154.587 398.056 154.307 399.176 153.773C400.296 153.24 401.269 152.533 402.096 151.653C402.949 150.747 403.616 149.707 404.096 148.533C404.576 147.333 404.803 146.08 404.776 144.773C404.776 143.467 404.523 142.227 404.016 141.053C403.509 139.88 402.829 138.867 401.976 138.013C401.123 137.133 400.123 136.44 398.976 135.933C397.856 135.427 396.669 135.173 395.416 135.173C394.163 135.2 392.976 135.48 391.856 136.013C390.736 136.52 389.763 137.227 388.936 138.133C388.109 139.013 387.456 140.04 386.976 141.213C386.496 142.387 386.256 143.64 386.256 144.973ZM414.6 158.413V131.373C414.6 131.24 414.64 131.133 414.72 131.053C414.826 130.947 414.946 130.893 415.08 130.893H418.88C419.413 130.893 419.853 131.107 420.2 131.533L434.6 150.253V131.373C434.6 131.053 434.76 130.893 435.08 130.893H439.2C439.52 130.893 439.68 131.053 439.68 131.373V158.413C439.68 158.733 439.52 158.893 439.2 158.893H435.4C434.866 158.893 434.426 158.68 434.08 158.253L419.72 139.533V158.413C419.72 158.733 419.546 158.893 419.2 158.893H415.08C414.946 158.893 414.826 158.853 414.72 158.773C414.64 158.667 414.6 158.547 414.6 158.413ZM445.939 130.893H450.059C450.406 130.893 450.579 131.053 450.579 131.373V153.813H461.779C461.939 153.813 462.046 153.88 462.099 154.013C462.179 154.147 462.179 154.267 462.099 154.373L459.099 158.253C458.752 158.68 458.326 158.893 457.819 158.893H445.939C445.806 158.893 445.686 158.853 445.579 158.773C445.499 158.667 445.459 158.547 445.459 158.413V131.373C445.459 131.24 445.499 131.133 445.579 131.053C445.686 130.947 445.806 130.893 445.939 130.893ZM465.744 130.893H469.864C470.21 130.893 470.384 131.053 470.384 131.373V158.413C470.384 158.733 470.21 158.893 469.864 158.893H465.744C465.61 158.893 465.49 158.853 465.384 158.773C465.304 158.667 465.264 158.547 465.264 158.413V131.373C465.264 131.24 465.304 131.133 465.384 131.053C465.49 130.947 465.61 130.893 465.744 130.893ZM476.162 158.413V131.373C476.162 131.24 476.202 131.133 476.282 131.053C476.389 130.947 476.509 130.893 476.642 130.893H480.442C480.976 130.893 481.416 131.107 481.762 131.533L496.162 150.253V131.373C496.162 131.053 496.322 130.893 496.642 130.893H500.762C501.082 130.893 501.242 131.053 501.242 131.373V158.413C501.242 158.733 501.082 158.893 500.762 158.893H496.962C496.429 158.893 495.989 158.68 495.642 158.253L481.282 139.533V158.413C481.282 158.733 481.109 158.893 480.762 158.893H476.642C476.509 158.893 476.389 158.853 476.282 158.773C476.202 158.667 476.162 158.547 476.162 158.413ZM507.022 131.373C507.022 131.24 507.062 131.133 507.142 131.053C507.248 130.947 507.368 130.893 507.502 130.893H524.782C525.102 130.893 525.262 131.053 525.262 131.373V135.493C525.262 135.813 525.102 135.973 524.782 135.973H512.142V142.373H522.142C522.462 142.373 522.622 142.533 522.622 142.853V146.933C522.622 147.28 522.462 147.453 522.142 147.453H512.142V153.813H526.022C526.182 153.813 526.288 153.88 526.342 154.013C526.422 154.147 526.408 154.267 526.302 154.373L523.342 158.253C522.995 158.68 522.555 158.893 522.022 158.893H507.502C507.368 158.893 507.248 158.853 507.142 158.773C507.062 158.667 507.022 158.547 507.022 158.413V131.373ZM540.693 158.413V131.373C540.693 131.24 540.733 131.133 540.813 131.053C540.92 130.947 541.04 130.893 541.173 130.893H544.973C545.507 130.893 545.947 131.107 546.293 131.533L566.893 158.333C566.973 158.467 566.973 158.6 566.893 158.733C566.84 158.84 566.733 158.893 566.573 158.893H561.493C560.96 158.893 560.52 158.68 560.173 158.253L553.253 149.213L546.293 158.253C545.947 158.68 545.507 158.893 544.973 158.893H541.173C541.04 158.893 540.92 158.853 540.813 158.773C540.733 158.667 540.693 158.547 540.693 158.413ZM545.813 139.533V150.253L549.933 144.893L545.813 139.533ZM566.878 144.773C566.878 142.72 567.251 140.813 567.998 139.053C568.771 137.267 569.798 135.733 571.078 134.453C572.385 133.147 573.918 132.133 575.678 131.413C577.438 130.667 579.331 130.307 581.358 130.333C583.305 130.36 585.131 130.733 586.838 131.453C588.545 132.147 590.038 133.12 591.318 134.373C591.531 134.587 591.545 134.8 591.358 135.013L588.798 138.333C588.718 138.467 588.598 138.547 588.438 138.573C588.305 138.573 588.185 138.507 588.078 138.373C587.225 137.387 586.198 136.6 584.998 136.013C583.798 135.427 582.518 135.147 581.158 135.173C579.905 135.173 578.718 135.44 577.598 135.973C576.478 136.507 575.505 137.213 574.678 138.093C573.851 138.973 573.198 140.013 572.718 141.213C572.238 142.387 571.998 143.64 571.998 144.973C571.998 146.28 572.251 147.52 572.758 148.693C573.265 149.867 573.945 150.893 574.798 151.773C575.651 152.653 576.638 153.347 577.758 153.853C578.878 154.36 580.078 154.613 581.358 154.613C582.398 154.587 583.385 154.387 584.318 154.013C585.278 153.64 586.145 153.133 586.918 152.493C587.718 151.853 588.398 151.107 588.958 150.253C589.518 149.373 589.931 148.427 590.198 147.413H582.398C582.265 147.413 582.158 147.36 582.078 147.253C582.025 147.12 582.038 146.987 582.118 146.853L584.678 143.093C585.025 142.613 585.478 142.373 586.038 142.373H595.518C595.598 142.827 595.651 143.267 595.678 143.693C595.731 144.12 595.745 144.56 595.718 145.013C595.691 147.04 595.291 148.933 594.518 150.693C593.771 152.453 592.731 153.987 591.398 155.293C590.091 156.6 588.558 157.627 586.798 158.373C585.038 159.093 583.145 159.453 581.118 159.453C579.118 159.453 577.238 159.08 575.478 158.333C573.745 157.56 572.238 156.52 570.958 155.213C569.678 153.88 568.678 152.32 567.958 150.533C567.238 148.747 566.878 146.827 566.878 144.773ZM600.342 131.373C600.342 131.24 600.382 131.133 600.462 131.053C600.569 130.947 600.689 130.893 600.822 130.893H618.102C618.422 130.893 618.582 131.053 618.582 131.373V135.493C618.582 135.813 618.422 135.973 618.102 135.973H605.462V142.373H615.462C615.782 142.373 615.942 142.533 615.942 142.853V146.933C615.942 147.28 615.782 147.453 615.462 147.453H605.462V153.813H619.342C619.502 153.813 619.609 153.88 619.662 154.013C619.742 154.147 619.729 154.267 619.622 154.373L616.662 158.253C616.315 158.68 615.875 158.893 615.342 158.893H600.822C600.689 158.893 600.569 158.853 600.462 158.773C600.382 158.667 600.342 158.547 600.342 158.413V131.373ZM623.506 158.413V131.373C623.506 131.24 623.546 131.133 623.626 131.053C623.733 130.947 623.853 130.893 623.986 130.893H627.786C628.319 130.893 628.759 131.107 629.106 131.533L643.506 150.253V131.373C643.506 131.053 643.666 130.893 643.986 130.893H648.106C648.426 130.893 648.586 131.053 648.586 131.373V158.413C648.586 158.733 648.426 158.893 648.106 158.893H644.306C643.773 158.893 643.333 158.68 642.986 158.253L628.626 139.533V158.413C628.626 158.733 628.453 158.893 628.106 158.893H623.986C623.853 158.893 623.733 158.853 623.626 158.773C623.546 158.667 623.506 158.547 623.506 158.413ZM652.965 131.293C652.965 131.16 653.005 131.053 653.085 130.973C653.192 130.867 653.312 130.813 653.445 130.813H670.805C671.339 130.813 671.779 131.027 672.125 131.453L675.085 135.333C675.192 135.467 675.205 135.6 675.125 135.733C675.072 135.84 674.965 135.893 674.805 135.893H665.885V158.333C665.885 158.653 665.725 158.813 665.405 158.813H661.285C660.965 158.813 660.805 158.653 660.805 158.333V135.893H653.445C653.312 135.893 653.192 135.853 653.085 135.773C653.005 135.667 652.965 135.547 652.965 135.413V131.293Z" fill="url(#paint0_linear_217_35)"/>
<path d="M58.255 190.398C58.495 190.743 58.45 191.103 58.285 191.448C58.045 191.958 57.7 192.393 57.19 192.678C56.815 192.558 56.815 192.558 56.8 192.153C56.755 192.138 56.71 192.138 56.62 192.108C56.68 191.628 57.085 191.358 57.31 190.923C57.1 190.863 56.92 190.803 56.74 190.758C55.78 190.593 54.82 190.638 53.875 190.788C52.795 190.968 51.715 191.193 50.65 191.403C50.53 191.418 50.425 191.418 50.245 191.448L50.53 191.208C50.2 191.163 49.96 191.238 49.795 191.478C49.75 191.538 49.765 191.658 49.63 191.598C49.51 191.838 49.24 191.703 49.06 191.868C48.895 192.018 48.64 192.063 48.415 192.138C47.65 192.438 46.885 192.723 46.135 193.053C45.4 193.368 44.665 193.743 43.93 194.103C43.93 194.073 43.9 194.028 43.87 193.968C43.105 194.448 42.31 194.868 41.74 195.603C41.98 195.588 42.055 195.333 42.34 195.243C41.92 195.738 41.47 196.128 41.32 196.713C41.65 197.343 43.66 198.753 44.8 199.128C44.8 199.083 44.8 199.038 44.815 198.978C44.935 199.023 45.085 199.038 45.235 199.098C46.57 199.623 47.905 200.148 49.24 200.688C49.36 200.733 49.495 200.793 49.615 200.868C50.335 201.273 51.13 201.513 51.805 202.008C52.345 202.113 52.75 202.488 53.185 202.788C54.205 203.493 54.82 204.483 55.12 205.668C55.195 205.968 55.195 206.313 55.165 206.628C55.09 207.738 54.49 208.593 53.695 209.343C52.78 210.228 51.745 210.933 50.635 211.563C48.475 212.808 46.15 213.663 43.75 214.278C42.97 214.473 42.175 214.623 41.395 214.788C41.32 214.818 41.23 214.833 41.155 214.818C40.615 214.773 40.12 214.953 39.61 215.028C39.145 215.088 38.665 215.118 38.185 215.163C38.035 215.178 37.885 215.163 37.735 215.178C36.175 215.343 34.63 215.208 33.13 214.788C32.83 214.713 32.53 214.608 32.275 214.443C31.945 214.233 31.66 213.963 31.375 213.693C31.21 213.528 31.075 213.318 30.925 213.123C31.18 212.703 30.94 212.313 30.88 211.848C31.135 211.323 31.51 210.813 31.945 210.348C32.83 209.388 33.775 208.488 34.87 207.753C35.875 207.093 36.895 206.478 38.005 206.043C38.5 205.848 38.995 205.698 39.52 205.653C39.64 205.638 39.64 205.638 39.79 205.788C40.24 205.743 40.705 205.683 41.185 205.653C41.395 205.638 41.62 205.548 41.83 205.728C41.845 205.758 41.92 205.743 41.98 205.728C42.145 205.668 42.19 205.773 42.265 205.923C42.145 205.923 42.055 205.908 41.905 205.908C41.995 206.118 42.07 206.328 42.16 206.523C42.115 206.718 41.995 206.793 41.8 206.778C40.57 206.733 39.385 206.943 38.215 207.318C37.72 207.468 37.21 207.618 36.79 207.978C36.715 208.038 36.595 208.068 36.49 208.113C36.49 208.113 36.49 208.098 36.505 208.098C36.385 208.173 36.28 208.263 36.175 208.338C34.63 209.268 33.31 210.438 32.275 211.908C32.215 211.983 32.155 212.058 32.11 212.148C31.87 212.568 31.93 212.823 32.35 213.063C32.875 213.363 33.445 213.558 34.045 213.678C35.065 213.873 36.1 213.948 37.135 213.933C37.48 213.933 37.825 213.873 38.2 213.933C38.05 213.978 37.915 214.008 37.735 214.068L37.93 214.113C37.93 214.128 37.945 214.143 37.945 214.173C37.45 214.233 36.955 214.308 36.385 214.398L36.835 214.473L35.47 214.683C35.755 214.773 36.64 214.848 36.775 214.743C37.21 214.353 37.765 214.518 38.29 214.398C38.305 214.353 38.305 214.293 38.305 214.218C38.485 214.143 38.665 214.068 38.89 213.963C38.77 213.903 38.68 213.873 38.53 213.798C39.265 213.708 39.94 213.648 40.6 213.543C41.605 213.363 42.595 213.198 43.585 212.958C46.105 212.343 48.535 211.473 50.785 210.138C51.7 209.598 52.555 208.968 53.245 208.158C53.65 207.693 53.935 207.168 54.04 206.553C54.16 205.848 53.965 205.248 53.47 204.738C52.855 204.093 52.09 203.628 51.31 203.208C50.695 202.878 50.05 202.593 49.405 202.293C48.76 202.008 48.115 201.738 47.47 201.468C47.5 201.438 47.515 201.393 47.56 201.318C47.41 201.273 47.275 201.213 47.125 201.183C46.525 201.003 45.895 200.868 45.31 200.658C44.575 200.388 43.855 200.058 43.135 199.743C42.565 199.488 42.04 199.143 41.56 198.753C41.44 198.648 41.32 198.573 41.2 198.468C40.99 198.303 40.765 198.153 40.72 197.853C40.57 197.628 40.39 197.403 40.27 197.148C40.06 196.728 40.09 196.293 40.3 195.888C40.675 195.123 41.29 194.613 41.98 194.148C42.055 194.103 42.16 194.073 42.25 194.073C42.445 194.103 42.535 193.983 42.625 193.878C42.595 193.803 42.565 193.743 42.505 193.653C42.955 193.368 43.375 193.083 43.825 192.828C45.865 191.673 48.055 190.863 50.305 190.218C50.41 190.188 50.515 190.188 50.635 190.173C50.665 190.233 50.68 190.293 50.71 190.338C50.56 190.308 50.44 190.338 50.365 190.503C50.515 190.503 50.65 190.503 50.71 190.338C50.845 190.413 50.965 190.398 51.07 190.263C51.43 190.218 51.79 190.113 52.15 190.068C52.66 190.008 53.17 189.783 53.71 189.903C53.965 189.963 54.265 189.858 54.535 189.813C54.49 189.483 54.205 189.663 54.01 189.513C54.85 189.453 55.645 189.363 56.44 189.363C56.845 189.348 57.25 189.468 57.64 189.588C57.925 189.663 58.165 189.858 58.18 190.203C58.18 190.278 58.21 190.338 58.255 190.398ZM55.075 189.903C55.72 189.918 56.35 189.948 57.085 189.978C56.365 189.753 55.735 189.843 55.075 189.903ZM49.885 190.908H50.185C50.11 190.833 50.065 190.773 50.035 190.773C49.975 190.773 49.93 190.818 49.87 190.848C49.87 190.863 49.885 190.878 49.885 190.908ZM40.735 197.853L40.9 197.943C40.885 197.853 40.9 197.793 40.87 197.718C40.855 197.673 40.81 197.643 40.735 197.553V197.853ZM55.015 205.593C54.895 206.013 54.895 206.013 55.015 206.148V205.593ZM37.48 206.913C36.49 207.363 35.605 207.963 34.765 208.653C34.825 208.668 34.87 208.638 34.915 208.623C35.44 208.413 35.935 208.158 36.505 208.098C36.595 207.993 36.67 207.888 36.775 207.828C37.3 207.498 37.825 207.183 38.365 206.868C38.38 206.778 38.41 206.688 38.455 206.523C38.095 206.673 37.78 206.778 37.48 206.913ZM32.095 210.813C31.855 210.933 31.705 211.128 31.66 211.398L32.095 210.813ZM60.3316 205.008C59.9566 205.008 59.6266 204.843 59.2816 204.723C59.3116 204.678 59.3416 204.648 59.3716 204.588C59.0716 204.378 58.9066 204.033 58.5316 203.913C58.4416 203.883 58.3816 203.763 58.3066 203.688C58.2016 203.568 58.0966 203.433 58.0066 203.313C57.9616 203.253 57.9466 203.178 57.9316 203.118C57.9166 202.983 57.9166 202.863 57.9016 202.728C57.6166 202.713 57.2866 202.953 57.0316 202.593C57.0466 202.488 57.0466 202.353 57.0616 202.203C57.1666 202.128 57.2716 202.053 57.3766 201.963L57.3616 201.978C57.6766 201.993 58.0066 202.008 58.2916 201.828C58.3816 201.783 58.4866 201.738 58.5466 201.663C58.8316 201.348 59.1616 201.078 59.5216 200.853C59.8366 200.628 60.1366 200.388 60.3616 200.073C60.4516 199.938 60.5566 199.833 60.6766 199.743C60.9316 199.548 61.1866 199.368 61.4416 199.203C61.7566 198.993 62.0866 198.813 62.4166 198.633C62.6266 198.513 62.8366 198.513 63.0466 198.633C63.1816 198.708 63.3166 198.768 63.4366 198.828C63.3766 198.873 63.2266 198.738 63.2416 198.993L63.4366 198.828C63.8716 199.053 63.9616 199.338 63.7666 199.773C63.6466 200.043 63.4666 200.253 63.2566 200.448C62.6716 200.988 61.9966 201.408 61.3066 201.813C60.6316 202.203 59.8966 202.443 59.2066 202.743C59.1316 202.773 59.0416 202.803 58.9816 202.833C58.9966 203.628 59.4466 203.988 60.5866 204.078C60.5416 204.033 60.5266 203.988 60.4816 203.943C60.7966 203.883 61.0966 203.853 61.3816 203.763C61.6666 203.688 61.9516 203.553 62.2666 203.448C62.3866 203.523 62.5366 203.628 62.6866 203.748C62.9716 203.973 62.9716 204.348 62.6716 204.513C62.1166 204.843 61.5166 205.008 60.8716 205.008H60.3316ZM59.9716 201.423C60.5416 201.213 61.2016 200.793 61.4716 200.508L61.4266 200.328C60.8716 200.643 60.3916 201.003 59.9716 201.423ZM58.6366 203.178C58.6516 203.058 58.6666 202.983 58.6816 202.908C58.5466 202.968 58.5916 203.058 58.6366 203.178ZM63.1109 206.298C63.0659 206.178 63.0509 206.118 63.0059 206.028C62.9459 206.103 62.9009 206.163 62.8259 206.283C62.7809 206.163 62.7209 206.088 62.7359 206.028C62.7959 205.878 62.8709 205.743 62.9459 205.593C62.8709 205.548 62.8109 205.518 62.7209 205.488C62.8709 205.293 63.0059 205.113 63.1259 204.918C63.5009 204.303 63.8459 203.673 64.2209 203.043C64.4759 202.623 64.7609 202.203 65.0309 201.783C65.0609 201.738 65.0909 201.693 65.1059 201.633C65.2559 201.273 65.3909 200.898 65.5559 200.538C66.0509 199.353 66.5609 198.153 67.0709 196.968C67.2959 196.413 67.5359 195.873 67.7609 195.318C67.9259 194.913 68.0609 194.508 68.1809 194.103C68.4959 193.053 68.9309 192.048 69.1409 190.968C69.1859 190.788 69.2159 190.593 69.2459 190.413C69.2609 190.338 69.2759 190.263 69.2459 190.218C68.9609 189.738 69.2459 189.378 69.4559 188.973C69.6059 189.078 69.7259 189.138 69.8309 189.213C70.1459 189.408 70.3109 189.693 70.3409 190.068C70.3709 190.668 70.2509 191.268 70.0559 191.823C69.4709 193.518 68.8709 195.198 68.2559 196.878C67.8359 198.003 67.3859 199.113 66.9209 200.208C66.4409 201.318 65.8859 202.383 65.2709 203.418C64.8059 204.198 64.3709 204.993 63.9059 205.788C63.8459 205.893 63.7709 205.983 63.6659 206.073C63.7259 205.758 63.9659 205.548 64.1159 205.278C64.2509 204.993 64.4459 204.723 64.5959 204.438C64.7459 204.183 64.8659 203.898 65.0459 203.568C64.9259 203.643 64.8809 203.673 64.7609 203.733C64.8359 203.523 64.8809 203.373 64.9559 203.223L66.1859 200.823C66.2459 200.733 66.2759 200.643 66.3359 200.538C66.1409 200.538 66.1259 200.703 66.0659 200.793C65.6609 201.588 65.2709 202.383 64.8359 203.178C64.2809 204.213 63.7109 205.233 63.1109 206.298ZM68.2409 196.578C68.2559 196.563 68.2559 196.533 68.2709 196.518L68.2109 196.503C68.1959 196.518 68.1959 196.548 68.1809 196.563C68.1959 196.578 68.2259 196.593 68.2409 196.578ZM70.6001 205.008C70.2251 205.008 69.8951 204.843 69.5501 204.723C69.5801 204.678 69.6101 204.648 69.6401 204.588C69.3401 204.378 69.1751 204.033 68.8001 203.913C68.7101 203.883 68.6501 203.763 68.5751 203.688C68.4701 203.568 68.3651 203.433 68.2751 203.313C68.2301 203.253 68.2151 203.178 68.2001 203.118C68.1851 202.983 68.1851 202.863 68.1701 202.728C67.8851 202.713 67.5551 202.953 67.3001 202.593C67.3151 202.488 67.3151 202.353 67.3301 202.203C67.4351 202.128 67.5401 202.053 67.6451 201.963L67.6301 201.978C67.9451 201.993 68.2751 202.008 68.5601 201.828C68.6501 201.783 68.7551 201.738 68.8151 201.663C69.1001 201.348 69.4301 201.078 69.7901 200.853C70.1051 200.628 70.4051 200.388 70.6301 200.073C70.7201 199.938 70.8251 199.833 70.9451 199.743C71.2001 199.548 71.4551 199.368 71.7101 199.203C72.0251 198.993 72.3551 198.813 72.6851 198.633C72.8951 198.513 73.1051 198.513 73.3151 198.633C73.4501 198.708 73.5851 198.768 73.7051 198.828C73.6451 198.873 73.4951 198.738 73.5101 198.993L73.7051 198.828C74.1401 199.053 74.2301 199.338 74.0351 199.773C73.9151 200.043 73.7351 200.253 73.5251 200.448C72.9401 200.988 72.2651 201.408 71.5751 201.813C70.9001 202.203 70.1651 202.443 69.4751 202.743C69.4001 202.773 69.3101 202.803 69.2501 202.833C69.2651 203.628 69.7151 203.988 70.8551 204.078C70.8101 204.033 70.7951 203.988 70.7501 203.943C71.0651 203.883 71.3651 203.853 71.6501 203.763C71.9351 203.688 72.2201 203.553 72.5351 203.448C72.6551 203.523 72.8051 203.628 72.9551 203.748C73.2401 203.973 73.2401 204.348 72.9401 204.513C72.3851 204.843 71.7851 205.008 71.1401 205.008H70.6001ZM70.2401 201.423C70.8101 201.213 71.4701 200.793 71.7401 200.508L71.6951 200.328C71.1401 200.643 70.6601 201.003 70.2401 201.423ZM68.9051 203.178C68.9201 203.058 68.9351 202.983 68.9501 202.908C68.8151 202.968 68.8601 203.058 68.9051 203.178ZM75.5995 205.248C75.3295 205.263 75.0745 205.278 74.8345 205.143C74.7745 205.113 74.6995 205.098 74.6395 205.098C73.9945 205.038 73.7545 204.708 73.8895 204.078C73.9045 203.988 73.9345 203.898 73.9345 203.808C73.9045 203.253 74.1145 202.788 74.4295 202.338C74.4895 202.248 74.5195 202.158 74.5795 202.068C74.6695 201.993 74.7895 201.918 74.7595 201.768C74.7745 201.753 74.7745 201.738 74.8045 201.723C74.9845 201.648 75.1195 201.513 75.1645 201.303L75.5095 200.988C75.5545 200.973 75.6145 200.958 75.6595 200.928C75.9445 200.688 76.2445 200.463 76.5295 200.223C76.6645 200.118 76.7695 200.013 76.8895 199.908C76.9195 199.878 76.9645 199.863 76.9645 199.848C76.9345 199.548 77.1745 199.533 77.3395 199.443C77.8345 199.158 78.3595 198.993 78.9145 198.873C79.0645 198.843 79.2295 198.858 79.3945 198.843C79.5145 198.843 79.6195 198.873 79.6945 198.963C79.8145 199.113 79.9945 199.158 80.1745 199.188C80.7295 199.278 81.0895 199.878 80.9395 200.403C80.8945 200.538 80.8645 200.688 80.6845 200.733C80.5645 200.763 80.5045 200.733 80.3395 200.523C80.2945 200.553 80.2645 200.568 80.1895 200.628C80.1445 200.553 80.0845 200.493 80.0545 200.418C80.0245 200.373 80.0545 200.313 80.0395 200.253C80.0245 199.968 79.9195 199.863 79.6345 199.878C79.2445 199.893 78.8695 199.983 78.5095 200.133C78.2395 200.238 77.9695 200.343 77.7295 200.493C76.9645 200.958 76.1995 201.438 75.5995 202.128C75.2245 202.563 74.9245 203.043 74.7145 203.583C74.6545 203.733 74.6395 203.913 74.5945 204.108C74.7595 204.138 74.8945 204.183 75.0145 204.168C76.3345 204.093 77.5345 203.673 78.5845 202.848C78.8545 202.638 79.0495 202.368 79.3045 202.098C79.3945 202.218 79.6195 202.173 79.7245 202.353C79.8595 202.338 79.8745 202.458 79.9045 202.548C79.9195 202.653 79.9345 202.758 79.9045 202.848C79.8145 203.148 79.6045 203.373 79.3945 203.598C78.9145 204.093 78.3295 204.423 77.6995 204.693C77.0395 204.978 76.3345 205.188 75.5995 205.248ZM74.3845 204.813C74.2345 204.558 74.1445 204.378 74.0245 204.183C73.9645 204.543 74.0095 204.618 74.3845 204.813ZM83.3277 206.088C83.2827 206.058 83.2527 206.013 83.2227 205.968L83.0727 206.073C82.8027 205.998 82.8177 205.788 82.8177 205.578C82.8327 204.933 82.6827 204.303 82.3527 203.748C82.1277 203.358 81.8427 203.013 81.5727 202.638C81.4527 202.473 81.3177 202.323 81.1827 202.173C80.8077 201.723 80.7927 201.243 81.0777 200.733C81.0927 200.718 81.1227 200.688 81.1227 200.673C81.2127 200.103 81.6627 199.848 82.0977 199.653C82.7427 199.368 83.4327 199.158 84.0927 198.918C84.1227 198.903 84.1677 198.918 84.2427 198.918C83.9277 199.248 83.5077 199.353 83.1927 199.623C83.5527 199.503 83.9277 199.383 84.2877 199.248C84.3477 199.233 84.3777 199.188 84.4377 199.173C85.0377 199.053 85.2927 198.588 85.5027 198.078L85.6677 197.898C85.6527 197.883 85.6377 197.883 85.6377 197.868C85.5927 197.883 85.5477 197.913 85.5027 197.928C85.5927 197.718 85.6677 197.493 85.7727 197.298C86.5077 195.933 87.2427 194.568 87.9927 193.203C88.0677 193.068 88.1577 192.963 88.2627 192.798C88.3527 192.933 88.4277 193.023 88.5027 193.143C88.5777 193.068 88.6527 192.978 88.7277 192.888C88.9677 192.963 89.1627 193.113 89.1477 193.383C89.1327 193.578 89.0577 193.788 88.9677 193.953C88.6827 194.448 88.3377 194.928 88.0677 195.423C87.6027 196.263 87.1827 197.133 86.7327 197.988C86.6727 198.108 86.6277 198.243 86.5527 198.393C86.8077 198.423 87.0327 198.453 87.2577 198.498C87.9477 198.588 88.3977 199.023 88.7877 199.563C88.8177 199.608 88.8327 199.683 88.8327 199.743C88.8327 199.818 88.8027 199.893 88.8027 199.968C88.8027 200.043 88.8327 200.103 88.8627 200.178C88.6977 200.343 88.5327 200.388 88.3527 200.223C88.2777 200.163 88.2177 200.133 88.1127 200.163C88.0377 200.178 87.9177 200.073 87.8577 199.983C87.7077 199.743 87.4977 199.668 87.2277 199.698C86.7927 199.728 86.3427 199.773 85.8627 199.818C85.5777 200.538 85.3077 201.228 85.0527 201.918C84.6177 203.133 84.1977 204.348 83.9877 205.608C83.9727 205.728 83.9277 205.848 83.8827 205.968C83.7627 206.253 83.5677 206.298 83.3277 206.088ZM83.4327 203.298L84.4227 200.268C83.4177 200.433 82.3227 200.973 82.0527 201.438C82.5027 202.053 82.9677 202.668 83.4327 203.298ZM81.4527 201.723C81.4977 201.573 81.5577 201.408 81.3927 201.243C81.1977 201.438 81.3477 201.573 81.4527 201.723ZM89.2308 208.908C88.9758 209.118 88.7958 209.043 88.6758 208.713C88.5858 208.728 88.4958 208.758 88.3908 208.773C88.3908 208.728 88.3908 208.698 88.4058 208.683C88.5408 208.473 88.8108 208.353 88.8258 208.023C88.7208 208.068 88.6158 208.098 88.4958 208.128C88.4358 207.933 88.5858 207.843 88.6758 207.753C89.4108 207.033 89.6058 206.133 89.5008 205.143C89.4558 204.738 89.6358 204.408 89.8608 204.078C90.0708 204.258 90.3108 204.393 90.4458 204.588C90.5808 204.813 90.6708 205.083 90.6858 205.353C90.7158 205.623 90.6708 205.893 90.6258 206.163C90.4908 207.018 90.1758 207.798 89.6508 208.473C89.5308 208.638 89.3808 208.788 89.2308 208.908ZM156.973 192.033C157.108 192.363 157.063 192.663 156.778 192.918C156.448 192.963 156.448 192.963 156.268 192.663C155.968 192.648 155.968 192.648 155.848 192.213C155.428 192.033 154.978 191.988 154.543 191.943C153.418 191.838 152.293 191.763 151.168 191.673C150.598 191.628 150.013 191.583 149.443 191.508C149.113 191.463 148.798 191.358 148.468 191.283C147.673 191.118 146.863 191.163 146.068 191.178C145.393 191.193 144.718 191.223 144.043 191.268C143.818 191.283 143.578 191.358 143.353 191.388C143.158 191.403 142.978 191.403 142.783 191.403L135.688 191.448H134.713L134.428 191.898C133.243 193.998 132.118 196.128 131.068 198.303C130.873 198.708 130.633 199.113 130.438 199.533C130.153 200.178 129.853 200.808 129.583 201.453C128.998 202.803 128.428 204.153 127.873 205.503C127.333 206.793 126.838 208.083 126.313 209.388C126.043 210.033 125.773 210.678 125.488 211.323C125.443 211.458 125.368 211.578 125.263 211.743C125.098 211.428 124.933 211.173 125.023 210.828C124.813 211.053 124.813 211.413 124.498 211.548C124.348 211.488 124.258 211.383 124.273 211.203L124.453 209.523C124.678 209.358 124.603 209.103 124.648 208.893C124.678 208.728 124.678 208.578 124.588 208.413C124.513 208.308 124.558 208.128 124.543 207.993C124.408 205.188 123.628 202.653 121.513 200.658C120.298 199.533 118.933 198.618 117.403 197.958C116.518 197.568 115.588 197.253 114.688 196.908C114.118 196.683 113.533 196.458 112.948 196.248C112.603 196.113 112.228 196.023 111.883 195.888C111.583 195.768 111.268 195.663 110.998 195.483C110.608 195.228 110.563 194.973 110.713 194.538C110.893 194.088 111.178 193.728 111.643 193.548C112.033 193.383 112.423 193.233 112.828 193.098C113.068 193.023 113.308 193.038 113.563 193.143C113.698 193.188 113.833 193.203 113.998 193.143C114.283 193.053 114.598 193.023 114.898 192.948C115.033 192.903 115.168 192.828 115.333 192.753C115.258 192.648 115.243 192.603 115.213 192.543C115.243 192.513 115.273 192.483 115.318 192.468C115.663 192.378 115.993 192.288 116.338 192.228C117.343 192.063 118.348 191.913 119.368 191.928C119.563 191.928 119.758 191.838 119.938 191.778C120.058 191.748 120.178 191.688 120.298 191.643C120.238 191.628 120.178 191.598 120.118 191.583V191.523C120.538 191.493 120.958 191.463 121.378 191.418C121.648 191.388 121.948 191.418 122.143 191.283C122.698 190.953 123.313 191.043 123.898 190.938C124.078 190.908 124.273 190.983 124.453 191.028C124.483 191.043 124.498 191.118 124.528 191.193C125.083 191.073 125.653 190.998 126.178 190.818C126.748 190.623 127.318 190.623 127.888 190.653C128.038 190.668 128.173 190.668 128.323 190.623C128.233 190.593 128.143 190.548 128.053 190.518V190.443C128.953 190.383 129.868 190.308 130.768 190.233C130.888 190.323 130.993 190.413 131.083 190.488C131.758 190.428 132.403 190.368 133.048 190.323C133.183 190.308 133.303 190.188 133.453 190.308C133.663 190.083 133.963 190.158 134.203 190.053C134.443 189.738 134.668 189.423 134.923 189.123C134.998 189.003 135.103 188.913 135.223 188.823C135.448 188.643 135.598 188.658 135.823 188.823C135.928 188.898 136.033 188.973 136.153 189.078L136.033 189.198C136.078 189.258 136.108 189.348 136.168 189.423C136.213 189.483 136.288 189.528 136.348 189.558C136.318 189.723 136.288 189.843 136.273 189.963C136.333 189.978 136.363 190.008 136.408 190.008C136.708 190.023 136.993 190.008 137.293 190.023C138.283 190.038 139.258 190.158 140.218 190.338C140.353 190.353 140.503 190.383 140.623 190.368C141.838 190.218 143.038 190.173 144.223 190.428C144.373 190.458 144.523 190.488 144.658 190.473C145.093 190.428 145.498 190.653 145.948 190.548C145.903 190.518 145.873 190.488 145.798 190.428H149.278L148.963 190.263C149.128 190.233 149.233 190.203 149.323 190.203C149.908 190.218 150.478 190.248 151.063 190.278C151.258 190.293 151.453 190.353 151.648 190.443C151.873 190.563 152.158 190.608 152.413 190.638C152.728 190.668 153.043 190.668 153.343 190.623C153.838 190.563 154.288 190.668 154.738 190.803C154.918 190.863 155.098 190.893 155.353 190.953C155.218 190.848 155.158 190.788 155.083 190.728C155.128 190.713 155.158 190.698 155.173 190.698C155.833 190.758 156.343 191.103 156.748 191.598C156.838 191.718 156.913 191.883 156.973 192.033ZM148.303 190.998H149.008C148.783 190.893 148.753 190.893 148.303 190.998ZM149.053 190.998C149.263 191.178 149.488 191.133 149.728 191.028C149.503 190.953 149.293 190.863 149.053 190.998ZM149.848 190.983C150.058 191.103 150.208 191.088 150.373 190.983H149.848ZM133.063 192.093C133.153 191.928 133.228 191.778 133.333 191.553C133.198 191.538 133.123 191.538 133.048 191.538C131.653 191.628 130.243 191.688 128.833 191.808C127.378 191.943 125.923 192.123 124.468 192.273C123.658 192.363 122.848 192.423 122.038 192.558C120.613 192.798 119.188 193.068 117.778 193.368C116.293 193.683 114.808 194.028 113.338 194.358C113.233 194.388 113.128 194.373 112.963 194.388L113.398 194.103C112.873 194.238 112.378 194.418 111.853 194.703L112.303 194.868C112.723 195.018 113.158 195.153 113.578 195.303C114.658 195.723 115.813 195.978 116.818 196.608C117.178 196.833 117.613 196.953 118.018 197.118C119.398 197.688 120.613 198.513 121.738 199.473C121.813 199.548 121.873 199.623 121.948 199.683C122.083 199.818 122.218 199.923 122.353 200.043C122.578 200.268 122.878 200.463 123.028 200.733C123.238 201.093 123.538 201.363 123.793 201.678C124.078 202.008 124.303 202.383 124.318 202.803C124.393 202.908 124.453 202.968 124.513 203.058C125.068 203.958 125.368 204.963 125.503 206.013C125.578 206.568 125.638 207.108 125.698 207.663C125.908 207.318 126.058 206.958 126.208 206.598C126.538 205.728 127.018 204.918 127.333 204.033C127.633 203.208 127.993 202.398 128.338 201.573C129.763 198.348 131.353 195.183 133.063 192.093ZM118.903 192.528C118.528 192.603 118.168 192.708 117.793 192.813C117.808 192.843 117.808 192.873 117.823 192.903C117.928 192.888 118.063 192.888 118.168 192.858C118.513 192.768 118.843 192.663 119.188 192.738C119.728 192.843 120.253 192.648 120.793 192.663C120.988 192.678 121.183 192.603 121.378 192.573V192.528C121.243 192.483 121.093 192.438 120.883 192.393C121.213 192.288 121.483 192.198 121.753 192.123C122.173 191.958 122.653 191.973 123.103 191.733L122.728 191.598C122.248 191.718 121.798 191.823 121.333 191.928C121.348 191.973 121.348 192.018 121.363 192.048C121.168 192.198 120.913 192.168 120.688 192.198C120.088 192.303 119.488 192.408 118.903 192.528ZM120.658 199.143C120.928 199.458 121.108 199.548 121.408 199.563C120.988 199.188 120.988 199.188 120.658 199.143ZM139.148 200.163C139.268 200.208 139.313 200.283 139.313 200.418C139.313 200.763 139.043 201.138 138.653 201.258C138.593 201.168 138.518 201.078 138.458 200.973C138.428 200.973 138.413 200.958 138.383 200.958C138.248 200.943 138.098 201.093 137.963 200.943C137.948 200.928 137.843 200.973 137.783 201.003C137.573 201.093 137.363 201.198 137.153 201.318C136.673 201.573 136.268 201.918 135.878 202.278V202.263C135.743 202.458 135.623 202.668 135.458 202.848C135.248 203.118 134.993 203.343 134.768 203.598C134.618 203.778 134.483 203.973 134.393 204.168C134.213 204.573 133.973 204.933 133.748 205.323L133.208 205.023C133.148 204.798 133.073 204.543 133.013 204.273C133.643 202.563 134.558 200.958 135.083 199.173L135.548 199.398C135.533 199.488 135.533 199.593 135.518 199.713C135.653 199.743 135.788 199.758 135.968 199.788C135.893 200.118 135.818 200.418 135.728 200.763C135.833 200.688 135.923 200.628 135.998 200.568C136.538 200.103 137.168 199.773 137.873 199.638C138.053 199.593 138.233 199.578 138.398 199.593C138.488 199.593 138.578 199.653 138.638 199.728C138.743 199.833 138.818 199.983 138.923 200.103C138.968 200.148 139.073 200.133 139.148 200.163ZM136.253 200.613C137.063 200.343 137.798 200.118 138.593 199.863C138.368 199.683 138.203 199.758 138.038 199.788C137.408 199.938 136.823 200.163 136.253 200.613ZM135.623 202.413C135.683 202.353 135.788 202.323 135.878 202.263C135.863 202.218 135.848 202.188 135.833 202.113C135.428 202.353 135.143 202.698 134.843 203.028C134.783 203.088 134.783 203.208 134.738 203.403C135.083 203.028 135.338 202.713 135.623 202.413ZM140.684 202.053C140.129 202.443 139.754 202.998 139.319 203.508C139.199 203.658 139.124 203.853 138.974 204.108C139.334 203.913 139.619 203.748 139.889 203.538C140.864 202.803 141.839 202.068 142.829 201.333L143.564 200.748C143.654 200.688 143.759 200.658 143.864 200.598L144.089 201.108C144.284 201.063 144.434 200.853 144.659 201.003C144.929 201.378 144.794 201.753 144.659 202.128C144.569 202.368 144.449 202.593 144.329 202.818L143.069 205.353C143.024 205.443 142.964 205.533 142.904 205.638C142.769 205.473 142.874 205.323 142.919 205.188C142.994 205.008 143.069 204.828 143.159 204.648C143.354 204.378 143.519 204.093 143.624 203.778C143.414 204.033 143.144 204.273 143.159 204.648C142.964 204.738 142.904 204.933 142.814 205.113C142.709 205.338 142.604 205.563 142.469 205.833L142.229 205.563C142.184 205.593 142.124 205.623 142.034 205.668C141.974 205.608 141.914 205.548 141.839 205.488C141.914 205.218 142.079 204.993 142.004 204.693C141.989 204.618 142.064 204.528 142.109 204.438L142.814 203.058C142.844 202.983 142.874 202.893 142.949 202.728L141.659 203.643C141.614 203.643 141.569 203.643 141.524 203.658C141.374 203.613 141.344 203.628 141.224 203.823C141.284 203.808 141.374 203.793 141.449 203.793C141.569 203.838 141.644 203.778 141.704 203.688C141.839 203.628 141.974 203.583 142.184 203.508C141.524 204.093 140.849 204.528 140.174 204.948C139.814 205.173 139.439 205.353 139.064 205.548C138.599 205.788 138.134 205.713 137.684 205.533C137.459 205.443 137.369 205.263 137.384 205.008C137.399 204.483 137.564 204.003 137.834 203.583C138.164 203.103 138.494 202.638 138.869 202.203C139.664 201.288 140.549 200.463 141.554 199.773C141.914 199.533 142.319 199.368 142.739 199.263C142.919 199.218 143.069 199.098 143.249 199.008C143.429 198.918 143.609 198.813 143.804 198.768C144.119 198.678 144.329 198.888 144.524 199.113C144.464 199.098 144.404 199.068 144.314 199.038C144.299 199.113 144.269 199.188 144.254 199.293C144.389 199.308 144.524 199.338 144.644 199.353C144.944 199.653 145.034 199.983 144.854 200.388C144.524 200.538 144.494 200.523 144.299 200.238C144.239 200.268 144.164 200.298 144.089 200.343C144.044 200.298 143.984 200.268 143.939 200.223C143.909 200.178 143.894 200.133 143.849 200.043C143.654 200.133 143.459 200.193 143.294 200.298C142.724 200.658 142.139 201.033 141.584 201.408C141.269 201.603 140.984 201.843 140.684 202.053ZM141.179 203.853L141.059 203.898C141.074 203.913 141.089 203.928 141.089 203.958L141.179 203.853ZM139.394 204.453L139.049 204.618C139.139 204.648 139.199 204.678 139.259 204.693C139.289 204.633 139.319 204.573 139.394 204.453ZM138.494 204.918C138.734 205.008 138.809 204.978 138.764 204.858C138.674 204.888 138.584 204.903 138.494 204.918ZM148.31 198.828C148.16 198.948 148.025 198.843 147.89 198.618C147.815 198.618 147.74 198.663 147.71 198.633C147.65 198.618 147.59 198.528 147.605 198.468C147.62 198.183 147.695 197.898 147.935 197.703C148.16 197.733 148.265 197.868 148.325 198.108C148.415 197.943 148.52 197.883 148.685 197.958C148.715 198.093 148.79 198.228 148.73 198.378C148.625 198.573 148.46 198.708 148.31 198.828ZM146.9 205.608C146.345 205.923 145.745 205.743 145.535 205.143C145.37 204.708 145.415 204.258 145.445 203.808C145.535 202.773 145.985 201.858 146.48 200.958C146.585 200.763 146.66 200.568 146.765 200.373C146.87 200.148 147.02 199.923 147.215 199.743C147.275 199.803 147.5 199.863 147.575 199.923C147.425 200.058 147.275 200.163 147.08 200.328L147.245 200.433C147.305 200.373 147.365 200.313 147.41 200.253C147.47 200.163 147.605 200.283 147.635 200.163C147.68 200.073 147.755 200.028 147.845 200.073C147.935 200.343 147.92 200.418 147.74 200.583C147.665 200.658 147.605 200.733 147.545 200.838C147.44 201.003 147.35 201.198 147.23 201.378L147.17 201.213C146.96 201.648 146.75 202.023 146.585 202.443C146.525 202.578 146.555 202.758 146.555 202.923C146.555 202.983 146.57 203.058 146.555 203.103C146.435 203.373 146.435 203.658 146.405 203.943C146.36 204.303 146.405 204.663 146.51 205.023C146.51 205.068 146.54 205.113 146.57 205.158C146.78 205.143 146.915 205.068 147.005 204.903C146.96 204.873 146.915 204.873 146.915 204.873L147.365 204.483C147.47 204.588 147.23 204.633 147.215 204.783C147.38 204.828 147.575 204.828 147.785 204.813C147.68 204.933 147.62 205.053 147.545 205.128C147.365 205.278 147.17 205.398 147.005 205.533C146.96 205.563 146.93 205.593 146.9 205.608ZM153.835 200.688C154.12 201.108 154.255 201.588 154.12 202.113C153.85 203.133 153.595 204.138 153.34 205.158L153.16 205.863C153.13 205.998 153.1 206.148 153.145 206.268C153.22 206.568 153.145 206.793 152.905 207.033C152.725 207.123 152.5 207.168 152.32 206.958C152.275 206.898 152.2 206.883 152.14 206.853C151.855 206.718 151.78 206.583 151.84 206.283L152.23 204.678C152.335 204.228 152.455 203.793 152.59 203.343C152.65 203.088 152.68 202.803 152.89 202.593C152.935 202.563 152.965 202.473 152.965 202.413C153.025 202.248 153.07 202.053 153.1 201.873C153.115 201.708 153.085 201.558 153.07 201.393C152.8 201.348 152.605 201.423 152.41 201.513C151.165 202.083 150.1 202.893 149.2 203.928C149.125 204.018 149.02 204.138 148.9 204.183C148.675 204.273 148.555 204.168 148.57 203.928C148.615 203.628 148.69 203.328 148.765 203.028C148.9 202.398 149.23 201.828 149.515 201.258L149.92 200.493C149.89 200.493 149.83 200.508 149.755 200.508C150.025 199.998 150.28 199.488 150.7 199.053C150.79 199.128 150.835 199.173 150.925 199.278C150.79 199.398 150.67 199.503 150.55 199.623C150.715 199.893 150.655 200.193 150.595 200.493C150.82 200.163 151.06 199.893 151.285 199.548C151.3 199.608 151.315 199.683 151.315 199.743C151.315 199.803 151.24 199.878 151.255 199.893C151.45 200.193 151.225 200.373 151.06 200.568C150.955 200.718 150.865 200.898 150.82 201.078L151.63 200.673C151.57 200.838 151.54 200.898 151.495 201.033C151.72 200.958 151.93 200.883 152.155 200.793C152.08 200.733 152.035 200.703 151.975 200.673C152.545 199.878 153.475 200.163 153.835 200.688ZM149.95 200.478C150.055 200.433 150.16 200.373 150.07 200.223C150.04 200.283 149.995 200.313 149.95 200.373C149.935 200.403 149.95 200.433 149.95 200.478ZM155.193 208.908C154.938 209.118 154.758 209.043 154.638 208.713C154.548 208.728 154.458 208.758 154.353 208.773C154.353 208.728 154.353 208.698 154.368 208.683C154.503 208.473 154.773 208.353 154.788 208.023C154.683 208.068 154.578 208.098 154.458 208.128C154.398 207.933 154.548 207.843 154.638 207.753C155.373 207.033 155.568 206.133 155.463 205.143C155.418 204.738 155.598 204.408 155.823 204.078C156.033 204.258 156.273 204.393 156.408 204.588C156.543 204.813 156.633 205.083 156.648 205.353C156.678 205.623 156.633 205.893 156.588 206.163C156.453 207.018 156.138 207.798 155.613 208.473C155.493 208.638 155.343 208.788 155.193 208.908ZM176.194 211.323C175.954 211.293 175.729 211.173 175.504 211.113C175.339 211.068 175.159 211.053 174.994 211.038C175.024 210.948 174.889 210.858 174.859 210.903C174.739 211.083 174.604 210.963 174.499 210.918C174.244 210.828 174.004 210.708 173.809 210.438C174.154 210.483 174.319 210.903 174.724 210.798C174.319 210.468 173.959 210.138 173.554 209.853C173.119 209.538 173.014 209.223 173.194 208.698C173.524 207.723 174.124 206.943 174.979 206.358C175.699 205.863 176.419 205.368 177.184 204.933C179.524 203.613 181.939 202.428 184.429 201.378C185.419 200.958 186.424 200.583 187.414 200.193C187.639 200.118 187.774 199.968 187.924 199.788C188.284 199.353 188.524 198.828 188.884 198.393C189.334 197.868 189.439 197.208 189.724 196.623C189.874 196.308 190.024 195.993 190.159 195.678C190.249 195.513 190.309 195.333 190.414 195.198C190.684 194.823 190.969 194.448 191.314 193.998C191.299 194.178 191.299 194.268 191.284 194.343C191.434 194.343 191.539 194.088 191.719 194.283C191.779 194.208 191.824 194.133 191.869 194.043H191.689C191.704 193.983 191.704 193.938 191.719 193.893C191.779 193.713 191.884 193.548 192.109 193.578C192.229 193.593 192.364 193.653 192.484 193.713C192.529 193.743 192.529 193.833 192.544 193.893C192.454 193.968 192.364 194.028 192.229 194.133C192.379 194.148 192.469 194.148 192.589 194.148C192.589 194.298 192.544 194.418 192.424 194.538C192.199 194.748 191.944 194.958 191.794 195.213C190.984 196.608 190.189 198.033 189.394 199.443C189.379 199.458 189.379 199.488 189.379 199.563C189.439 199.563 189.529 199.608 189.589 199.593C190.204 199.503 190.804 199.398 191.404 199.293L193.009 199.023C192.964 198.963 192.904 198.903 192.844 198.843C193.444 198.708 193.954 198.798 194.674 199.158C194.599 199.353 194.539 199.563 194.464 199.758L194.089 199.803C193.954 199.758 193.819 199.578 193.564 199.713C193.639 199.773 193.699 199.803 193.759 199.848C193.804 199.908 193.849 199.968 193.909 200.028C193.534 199.983 193.174 199.938 192.814 199.908C192.304 199.848 191.794 199.968 191.284 200.088C190.564 200.253 189.829 200.478 189.109 200.688C189.004 200.718 188.929 200.793 188.824 200.853C188.704 200.838 188.629 200.883 188.629 201.018C188.269 201.363 188.104 201.813 187.894 202.248C187.249 203.523 186.649 204.828 186.019 206.133C185.944 206.283 185.884 206.448 185.794 206.583C185.659 206.778 185.584 206.793 185.284 206.688C185.269 206.493 185.239 206.298 185.209 206.058L184.849 206.268C184.789 206.013 184.894 205.818 184.969 205.638L186.634 202.068C186.709 201.933 186.769 201.798 186.874 201.573C186.529 201.723 186.259 201.828 186.004 201.933C183.694 202.968 181.384 203.988 179.164 205.188C178.024 205.803 176.869 206.388 175.834 207.198C175.294 207.603 174.769 208.038 174.409 208.623C174.349 208.743 174.289 208.878 174.229 208.983C174.289 209.223 174.469 209.313 174.634 209.418C175.234 209.793 175.924 209.913 176.614 209.988C177.979 210.123 179.344 210.018 180.709 209.853C180.979 209.823 181.264 209.763 181.549 209.748C181.684 209.733 181.819 209.763 181.954 209.778C181.969 209.793 181.999 209.808 182.029 209.808C181.954 209.853 181.894 209.913 181.759 210.003C182.104 209.973 182.374 209.973 182.644 209.913C183.244 209.778 183.844 209.643 184.459 209.583C184.669 209.568 184.804 209.463 184.834 209.283C185.494 209.118 186.139 208.983 186.769 208.788C186.919 208.743 187.084 208.713 187.234 208.653C187.399 208.578 187.579 208.503 187.759 208.443C187.939 208.383 188.134 208.338 188.329 208.278C188.509 208.233 188.704 208.173 188.899 208.128C189.079 208.068 189.274 208.008 189.469 207.963C189.649 207.903 189.844 207.843 190.039 207.798L190.594 207.618C190.789 207.573 190.984 207.513 191.164 207.453C192.619 206.988 194.074 206.553 195.499 206.028C197.794 205.188 200.044 204.258 202.249 203.208C203.809 202.488 205.264 201.618 206.689 200.658C207.499 200.118 208.234 199.488 208.834 198.693C209.089 198.348 209.314 197.973 209.419 197.538C209.554 197.043 209.479 196.608 209.104 196.218C208.579 195.648 207.919 195.273 207.229 194.928C206.839 194.733 206.404 194.643 206.044 194.358C205.969 194.298 205.804 194.328 205.654 194.313C205.654 194.268 205.669 194.223 205.684 194.118L205.249 194.028C204.679 193.923 204.109 193.818 203.539 193.698C202.549 193.488 201.559 193.263 200.584 193.038C200.344 192.993 200.119 192.918 199.879 192.858C199.459 192.753 199.024 192.723 198.589 192.693C197.554 192.633 196.519 192.528 195.469 192.423C193.834 192.273 192.184 192.258 190.534 192.258C188.479 192.258 186.439 192.348 184.399 192.543C182.869 192.693 181.354 192.918 179.854 193.263C179.524 193.338 179.194 193.443 178.879 193.563C178.684 193.638 178.489 193.773 178.339 193.863C178.264 194.148 178.519 194.373 178.264 194.613C178.204 194.523 178.144 194.448 178.069 194.313C177.964 194.478 177.859 194.598 177.784 194.748C177.739 194.763 177.694 194.763 177.634 194.793C177.469 194.508 177.244 194.253 177.184 193.908C177.154 193.653 177.199 193.443 177.379 193.248C177.724 192.873 178.144 192.618 178.609 192.438C179.659 192.003 180.754 191.748 181.879 191.628C182.239 191.598 182.599 191.478 182.959 191.433C184.084 191.313 185.224 191.193 186.364 191.103C188.359 190.923 190.369 190.908 192.364 190.953C194.524 190.983 196.684 191.133 198.814 191.433C199.639 191.553 200.449 191.733 201.274 191.883C201.574 191.928 201.829 192.138 202.144 192.123C202.279 192.123 202.414 192.183 202.549 192.108C202.639 192.063 202.774 192.108 202.879 192.138C204.079 192.408 205.264 192.708 206.419 193.128C206.779 193.248 207.124 193.428 207.469 193.593C207.859 193.773 208.249 193.968 208.609 194.193C208.939 194.388 209.239 194.613 209.539 194.838C210.214 195.363 210.514 196.053 210.484 196.908C210.484 197.298 210.529 197.673 210.424 198.063C210.214 198.903 209.734 199.548 209.164 200.133C208.309 200.988 207.334 201.678 206.314 202.323C204.199 203.628 201.964 204.693 199.669 205.668C198.649 206.088 197.629 206.478 196.609 206.883C196.549 206.898 196.489 206.913 196.429 206.898L196.699 206.718C196.609 206.703 196.549 206.673 196.519 206.688C196.234 206.838 195.949 206.988 195.664 207.123C195.424 207.243 195.199 207.408 194.959 207.498C191.914 208.578 188.824 209.523 185.674 210.258C184.714 210.483 183.754 210.693 182.779 210.858C182.329 210.948 181.864 210.948 181.414 210.993C181.384 210.888 181.354 210.828 181.339 210.768C180.934 210.903 180.544 211.053 180.139 211.158C178.834 211.503 177.514 211.473 176.194 211.323ZM199.009 192.003C198.949 191.958 198.919 191.913 198.889 191.913C197.989 191.808 197.104 191.688 196.204 191.613C195.814 191.583 195.424 191.613 194.959 191.613C195.349 191.763 198.589 192.078 199.009 192.003ZM188.869 208.878C189.214 208.833 189.559 208.773 189.889 208.683C191.209 208.308 192.514 207.918 193.834 207.528C193.984 207.498 194.134 207.468 194.284 207.408C194.779 207.168 195.289 206.913 195.784 206.658C195.799 206.658 195.799 206.628 195.814 206.598H195.514C195.574 206.508 195.634 206.448 195.679 206.373C195.634 206.373 195.574 206.343 195.544 206.358C193.354 207.288 191.164 208.188 188.869 208.878ZM180.634 210.648L181.219 210.453C180.949 210.378 180.769 210.423 180.634 210.648ZM213.305 205.008C212.93 205.008 212.6 204.843 212.255 204.723C212.285 204.678 212.315 204.648 212.345 204.588C212.045 204.378 211.88 204.033 211.505 203.913C211.415 203.883 211.355 203.763 211.28 203.688C211.175 203.568 211.07 203.433 210.98 203.313C210.935 203.253 210.92 203.178 210.905 203.118C210.89 202.983 210.89 202.863 210.875 202.728C210.59 202.713 210.26 202.953 210.005 202.593C210.02 202.488 210.02 202.353 210.035 202.203C210.14 202.128 210.245 202.053 210.35 201.963L210.335 201.978C210.65 201.993 210.98 202.008 211.265 201.828C211.355 201.783 211.46 201.738 211.52 201.663C211.805 201.348 212.135 201.078 212.495 200.853C212.81 200.628 213.11 200.388 213.335 200.073C213.425 199.938 213.53 199.833 213.65 199.743C213.905 199.548 214.16 199.368 214.415 199.203C214.73 198.993 215.06 198.813 215.39 198.633C215.6 198.513 215.81 198.513 216.02 198.633C216.155 198.708 216.29 198.768 216.41 198.828C216.35 198.873 216.2 198.738 216.215 198.993L216.41 198.828C216.845 199.053 216.935 199.338 216.74 199.773C216.62 200.043 216.44 200.253 216.23 200.448C215.645 200.988 214.97 201.408 214.28 201.813C213.605 202.203 212.87 202.443 212.18 202.743C212.105 202.773 212.015 202.803 211.955 202.833C211.97 203.628 212.42 203.988 213.56 204.078C213.515 204.033 213.5 203.988 213.455 203.943C213.77 203.883 214.07 203.853 214.355 203.763C214.64 203.688 214.925 203.553 215.24 203.448C215.36 203.523 215.51 203.628 215.66 203.748C215.945 203.973 215.945 204.348 215.645 204.513C215.09 204.843 214.49 205.008 213.845 205.008H213.305ZM212.945 201.423C213.515 201.213 214.175 200.793 214.445 200.508L214.4 200.328C213.845 200.643 213.365 201.003 212.945 201.423ZM211.61 203.178C211.625 203.058 211.64 202.983 211.655 202.908C211.52 202.968 211.565 203.058 211.61 203.178ZM214.36 213.198C214.075 213.423 213.865 213.093 213.595 213.093C213.445 213.093 213.34 212.898 213.34 212.718C213.355 212.433 213.355 212.148 213.415 211.863C213.475 211.503 213.565 211.143 213.685 210.798C214.48 208.353 215.53 206.043 216.955 203.913C217.225 203.493 217.495 203.073 217.66 202.593C217.885 202.038 218.17 201.498 218.365 200.928C218.605 200.253 218.8 199.563 219.01 198.888C218.875 198.528 219.115 198.273 219.265 197.988C219.385 197.763 219.565 197.703 219.775 197.838C219.865 197.898 219.955 197.973 220.045 198.048C219.985 198.363 220.21 198.663 220.075 199.008C219.955 199.308 219.895 199.638 219.805 199.953C219.73 200.178 219.64 200.418 219.61 200.688C219.685 200.643 219.76 200.598 219.82 200.538C220.195 200.223 220.615 199.953 221.065 199.758C221.35 199.623 221.65 199.563 221.98 199.578C222.37 199.608 222.505 199.698 222.745 200.073C223.105 200.073 223.255 200.298 223.375 200.613C223.555 201.078 223.525 201.513 223.375 201.963C223.045 202.848 222.52 203.568 221.77 204.123C221.155 204.573 220.495 204.918 219.79 205.203C219.13 205.473 218.515 205.488 217.885 205.083C217.525 206.013 217.18 206.913 216.82 207.813C216.355 208.968 215.89 210.123 215.41 211.263C215.17 211.818 214.885 212.343 214.6 212.883C214.54 213.003 214.45 213.123 214.36 213.198ZM220.81 200.313L222.115 200.013C221.62 199.923 221.23 200.028 220.81 200.313ZM219.085 204.048C219.865 203.763 220.6 203.358 221.245 202.833C221.68 202.488 222.04 202.068 222.28 201.573C222.385 201.348 222.43 201.108 222.235 200.853C221.605 200.883 221.125 201.213 220.66 201.573C219.835 202.203 219.145 202.998 218.515 203.808C218.47 203.868 218.44 203.958 218.41 204.033C218.65 204.213 218.875 204.123 219.085 204.048ZM222.984 206.298C222.939 206.178 222.924 206.118 222.879 206.028C222.819 206.103 222.774 206.163 222.699 206.283C222.654 206.163 222.594 206.088 222.609 206.028C222.669 205.878 222.744 205.743 222.819 205.593C222.744 205.548 222.684 205.518 222.594 205.488C222.744 205.293 222.879 205.113 222.999 204.918C223.374 204.303 223.719 203.673 224.094 203.043C224.349 202.623 224.634 202.203 224.904 201.783C224.934 201.738 224.964 201.693 224.979 201.633C225.129 201.273 225.264 200.898 225.429 200.538C225.924 199.353 226.434 198.153 226.944 196.968C227.169 196.413 227.409 195.873 227.634 195.318C227.799 194.913 227.934 194.508 228.054 194.103C228.369 193.053 228.804 192.048 229.014 190.968C229.059 190.788 229.089 190.593 229.119 190.413C229.134 190.338 229.149 190.263 229.119 190.218C228.834 189.738 229.119 189.378 229.329 188.973C229.479 189.078 229.599 189.138 229.704 189.213C230.019 189.408 230.184 189.693 230.214 190.068C230.244 190.668 230.124 191.268 229.929 191.823C229.344 193.518 228.744 195.198 228.129 196.878C227.709 198.003 227.259 199.113 226.794 200.208C226.314 201.318 225.759 202.383 225.144 203.418C224.679 204.198 224.244 204.993 223.779 205.788C223.719 205.893 223.644 205.983 223.539 206.073C223.599 205.758 223.839 205.548 223.989 205.278C224.124 204.993 224.319 204.723 224.469 204.438C224.619 204.183 224.739 203.898 224.919 203.568C224.799 203.643 224.754 203.673 224.634 203.733C224.709 203.523 224.754 203.373 224.829 203.223L226.059 200.823C226.119 200.733 226.149 200.643 226.209 200.538C226.014 200.538 225.999 200.703 225.939 200.793C225.534 201.588 225.144 202.383 224.709 203.178C224.154 204.213 223.584 205.233 222.984 206.298ZM228.114 196.578C228.129 196.563 228.129 196.533 228.144 196.518L228.084 196.503C228.069 196.518 228.069 196.548 228.054 196.563C228.069 196.578 228.099 196.593 228.114 196.578ZM228.778 205.098C227.863 205.368 227.263 204.633 227.203 204.033C227.188 203.808 227.203 203.568 227.248 203.358C227.428 202.518 227.743 201.738 228.298 201.078C228.568 200.763 228.793 200.433 229.078 200.133C229.258 199.953 229.498 199.788 229.723 199.668C229.903 199.563 230.023 199.443 230.113 199.263C230.308 198.828 230.728 198.693 231.133 198.648C231.388 198.603 231.538 198.828 231.613 198.993C231.793 199.098 231.943 199.143 232.003 199.233C232.108 199.413 232.243 199.638 232.138 199.848C232.018 200.088 232.078 200.283 232.123 200.523C232.273 201.093 232.303 201.678 232.243 202.263C232.198 202.743 231.988 203.148 231.748 203.553C231.433 204.093 230.953 204.558 230.398 204.873C230.023 204.783 229.663 204.753 229.303 204.903C229.138 204.978 228.958 205.053 228.778 205.098ZM227.878 202.803C228.118 202.383 228.493 202.098 228.868 201.813C229.123 201.618 229.363 201.423 229.543 201.138C229.663 200.958 229.843 200.823 230.008 200.673C230.173 200.523 230.353 200.373 230.518 200.208C230.653 200.073 230.773 199.908 230.923 199.713L230.803 199.548C230.578 199.698 230.368 199.833 230.158 199.983C229.618 200.343 229.258 200.898 228.748 201.318C228.298 201.693 228.118 202.278 227.878 202.803ZM228.898 204.513C229.093 204.468 229.273 204.393 229.483 204.363C229.873 204.288 230.173 204.078 230.413 203.763C230.683 203.403 231.058 203.133 231.238 202.713C231.253 202.683 231.343 202.698 231.418 202.698C231.688 202.338 231.613 201.888 231.583 201.393C231.463 201.738 231.358 202.038 231.268 202.338C231.463 201.573 231.418 200.838 231.133 200.028L231.073 200.313C231.043 200.268 231.013 200.223 230.998 200.178H230.923C230.383 200.523 229.903 200.988 229.438 201.453C229.078 201.798 228.838 202.218 228.583 202.638C228.313 203.058 228.163 203.538 228.283 204.078C228.538 204.123 228.778 204.153 229.018 204.198C229.018 204.213 229.018 204.228 229.003 204.243H228.343C228.478 204.498 228.643 204.588 228.898 204.513ZM229.605 211.788C229.44 211.623 229.275 211.728 229.095 211.653V211.218C228.93 211.413 228.795 211.563 228.675 211.713C228.675 211.398 229.005 211.248 229.02 210.903C228.9 210.963 228.825 211.008 228.72 211.068C228.735 211.008 228.72 210.963 228.75 210.933C229.35 210.123 229.95 209.313 230.565 208.518L233.16 205.098C233.565 204.573 233.97 204.063 234.36 203.553L234.465 203.403L234.12 203.448C233.85 203.463 233.625 203.373 233.4 203.223C232.845 202.878 232.665 202.368 232.695 201.753C232.725 201.318 232.74 200.883 232.77 200.463C232.785 200.283 233.145 199.608 233.25 199.503C233.355 199.413 233.445 199.308 233.61 199.383C233.73 199.443 233.775 199.518 233.775 199.743C233.925 199.848 234.075 199.953 234.21 200.028C234.285 200.343 234.21 200.553 234.015 200.748C233.955 200.808 233.91 200.913 233.895 200.988C233.865 201.348 233.85 201.693 233.835 202.083C234.21 202.053 234.45 201.888 234.72 201.738C235.905 201.063 236.835 200.088 237.78 199.143C237.945 198.978 238.125 198.843 238.305 198.678C238.515 198.918 238.74 199.098 238.83 199.338C238.905 199.533 238.965 199.788 238.77 200.013C238.47 200.358 238.2 200.718 237.93 201.078L231.705 209.133L230.055 211.278C229.92 211.458 229.755 211.623 229.605 211.788ZM233.205 202.593C233.295 202.413 233.265 202.278 233.19 202.143C233.055 201.843 232.995 201.528 233.01 201.198C233.025 201.033 233.01 200.853 233.01 200.673C232.92 201.318 232.935 201.963 233.205 202.593Z" fill="white"/>
</g>
<defs>
<filter id="filter0_b_217_35" x="-14" y="-14" width="744" height="278.893" filterUnits="userSpaceOnUse" color-interpolation-filters="sRGB">
<feFlood flood-opacity="0" result="BackgroundImageFix"/>
<feGaussianBlur in="BackgroundImageFix" stdDeviation="7"/>
<feComposite in2="SourceAlpha" operator="in" result="effect1_backgroundBlur_217_35"/>
<feBlend mode="normal" in="SourceGraphic" in2="effect1_backgroundBlur_217_35" result="shape"/>
</filter>
<linearGradient id="paint0_linear_217_35" x1="413.5" y1="126.893" x2="676" y2="148.893" gradientUnits="userSpaceOnUse">
<stop stop-color="#E0E0E0"/>
<stop offset="1" stop-color="#432B98"/>
</linearGradient>
</defs>
</svg>
