<svg xmlns="http://www.w3.org/2000/svg" width="51" height="60" fill="none" viewBox="0 0 51 60"><path fill="#fff" fill-opacity=".5" d="M36.2515 40.5709C35.2674 40.5117 32.9013 40.6519 30.5316 41.1021C29.1609 39.7147 27.9739 37.967 27.0933 36.5256C29.915 28.4125 28.128 26.1064 25.7226 26.1064C23.8337 26.1064 22.8905 28.0999 23.1004 30.3023C23.2066 31.4111 24.1455 33.7406 25.3012 35.9535C24.5922 37.8182 23.3269 40.9698 22.071 43.2506C20.6009 43.6973 19.34 44.1938 18.4351 44.6126C13.9274 46.7088 13.5652 49.5079 14.5032 50.6939C16.2841 52.947 20.0785 51.003 23.8859 44.1938C26.4925 43.4525 29.922 42.465 30.2312 42.465C30.2668 42.465 30.3156 42.4764 30.3722 42.4946C32.2724 44.1702 34.5167 46.0888 36.3638 46.3413C39.0366 46.7088 40.5581 44.7703 40.4526 43.5649C40.3481 42.3588 39.6435 40.7746 36.2515 40.5709ZM19.3783 47.9157C18.2766 49.2257 16.4948 50.4821 15.866 50.0643C15.2363 49.6454 15.1318 48.44 16.5479 47.0763C17.963 45.7143 20.3319 45.0071 20.688 44.8747C21.1087 44.718 21.2132 44.8747 21.2132 45.0846C21.2132 45.2945 20.479 46.6043 19.3783 47.9157ZM24.202 30.3014C24.0966 28.9898 24.3578 27.7324 25.4595 27.5756C26.5594 27.4172 27.0847 28.6755 26.6656 30.7195C26.2458 32.7661 26.0351 34.1273 25.8261 34.2867C25.6163 34.4435 25.4081 33.9183 25.4081 33.9183C24.9876 33.0786 24.3065 31.6112 24.202 30.3014ZM24.6217 42.6209C25.1974 41.6759 26.6657 37.8511 26.6657 37.8511C26.9801 38.4284 29.443 41.3616 29.443 41.3616C29.443 41.3616 25.6686 42.202 24.6217 42.6209ZM36.0468 44.2964C34.4749 44.0892 31.8022 42.1993 31.8022 42.1993C31.4356 42.0427 34.7309 41.595 35.9963 41.676C37.6223 41.7814 38.1987 42.4632 38.1987 43.1443C38.1987 43.8261 37.6223 44.5064 36.0468 44.2964Z"/><path fill="#fff" fill-opacity=".5" d="M49.563 12.6164L38.0387 1.09125L36.9474 0H35.4025H11.9001C6.35088 0 1.83635 4.51547 1.83635 10.0665V10.8364H0.346191V22.8755H1.83635V49.9345C1.83635 55.4846 6.351 60.0001 11.9002 60.0001H40.5886C46.1396 60.0001 50.6542 55.4846 50.6542 49.9345V15.2525V13.7085L49.563 12.6164ZM40.5885 56.2726H11.9001C8.39908 56.2726 5.56186 53.4353 5.56186 49.9344V22.8754H23.9966V10.8363H5.56186V10.0664C5.56186 6.56461 8.39908 3.72633 11.9001 3.72633H34.5107V10.8623C34.5107 13.7789 36.8768 16.1434 39.7934 16.1434H46.9285V49.9343C46.9285 53.4354 44.0903 56.2726 40.5885 56.2726ZM5.82318 19.4632V13.8905C5.82318 13.7921 5.90322 13.7119 6.00178 13.7119H7.77225C8.06404 13.7119 8.3331 13.7598 8.57346 13.8539C8.81123 13.9471 9.02018 14.0777 9.19443 14.2432C9.37033 14.4095 9.50533 14.6116 9.59674 14.8433C9.68814 15.0705 9.73525 15.3189 9.73525 15.5809C9.73525 15.8483 9.68814 16.0982 9.5958 16.3229C9.50439 16.5477 9.36939 16.747 9.19525 16.9152C9.02193 17.0824 8.81205 17.2139 8.5717 17.3053C8.3331 17.3967 8.06404 17.4429 7.77225 17.4429H7.02506V19.4633C7.02506 19.5618 6.94502 19.6418 6.84658 19.6418H6.00189C5.90322 19.6418 5.82318 19.5616 5.82318 19.4632ZM11.2835 19.4632V13.8905C11.2835 13.7921 11.3637 13.7119 11.4621 13.7119H13.4189C13.7908 13.7119 14.1183 13.7737 14.3944 13.8956C14.674 14.0201 14.9238 14.2179 15.1382 14.4826C15.2488 14.622 15.3367 14.7761 15.4002 14.9415C15.4621 15.1027 15.5091 15.2769 15.5396 15.458C15.5692 15.6374 15.5865 15.8307 15.5926 16.0389C15.5979 16.2374 15.6005 16.4508 15.6005 16.6772C15.6005 16.9027 15.5979 17.1162 15.5926 17.3147C15.5865 17.522 15.5692 17.7162 15.5396 17.8964C15.5091 18.0776 15.4621 18.2509 15.4002 18.4119C15.3358 18.5791 15.2479 18.7334 15.1389 18.87C14.923 19.1374 14.6729 19.3351 14.3943 19.4578C14.1208 19.5797 13.7925 19.6416 13.4188 19.6416H11.462C11.3636 19.6418 11.2835 19.5616 11.2835 19.4632ZM20.6098 16.1696C20.7082 16.1696 20.7883 16.2498 20.7883 16.3482V17.1076C20.7883 17.2061 20.7082 17.2862 20.6098 17.2862H18.4718V19.4634C18.4718 19.5619 18.3917 19.6419 18.2932 19.6419H17.4484C17.35 19.6419 17.2699 19.5619 17.2699 19.4634V13.8907C17.2699 13.7924 17.35 13.7121 17.4484 13.7121H20.689C20.7873 13.7121 20.8676 13.7923 20.8676 13.8907V14.6501C20.8676 14.7485 20.7874 14.8287 20.689 14.8287H18.4718V16.1698L20.6098 16.1696Z"/><path fill="#fff" fill-opacity=".5" d="M8.32252 16.1371C8.46455 16.0091 8.53322 15.8271 8.53322 15.5806C8.53322 15.335 8.46443 15.153 8.32252 15.025C8.17451 14.8926 7.97939 14.8281 7.7251 14.8281H7.0249V16.3337H7.7251C7.97928 16.3339 8.17451 16.2695 8.32252 16.1371Z"/><path fill="#fff" fill-opacity=".5" d="M13.7976 18.4545C13.93 18.4048 14.0441 18.3248 14.146 18.2098C14.2566 18.0862 14.3263 17.9086 14.3533 17.6812C14.3838 17.4225 14.3986 17.0846 14.3986 16.677C14.3986 16.2686 14.3838 15.9307 14.3533 15.6729C14.3263 15.4448 14.2566 15.2671 14.1468 15.1443C14.045 15.0293 13.9273 14.9476 13.7986 14.8995C13.66 14.8464 13.5016 14.8203 13.3249 14.8203H12.4854V18.5328H13.3249C13.5007 18.5329 13.66 18.5068 13.7976 18.4545Z"/></svg>