<svg width="19" height="20" viewBox="0 0 19 20" fill="none" xmlns="http://www.w3.org/2000/svg">
<path fill-rule="evenodd" clip-rule="evenodd" d="M16.5963 13.7589C16.6918 13.5654 16.9285 13.4847 17.1231 13.5778L17.8971 13.948C17.8971 13.948 15.6906 19.1944 9.51256 19.4396C3.62867 19.2925 0.0368495 14.6711 0.000271292 9.97634C-0.0363069 5.28159 3.62867 0.611155 9.36546 0.562123C15.0042 0.464058 17.167 4.97543 17.167 4.97543C17.2723 5.1647 17.3577 5.14194 17.3577 4.9263V2.47409C17.3578 2.37011 17.3992 2.27041 17.4727 2.19691C17.5463 2.12341 17.646 2.08213 17.75 2.08213H18.3874C18.604 2.08213 18.7797 2.25864 18.7797 2.47517V7.27878C18.7798 7.33034 18.7698 7.38143 18.7501 7.42911C18.7305 7.47679 18.7016 7.52013 18.6652 7.55664C18.6288 7.59315 18.5855 7.62212 18.5379 7.64188C18.4902 7.66165 18.4392 7.67182 18.3876 7.67182H13.4349C13.3834 7.67186 13.3324 7.66176 13.2849 7.6421C13.2373 7.62244 13.1941 7.59361 13.1577 7.55725C13.1213 7.52088 13.0924 7.47771 13.0727 7.43018C13.053 7.38265 13.0428 7.3317 13.0428 7.28025V6.69049C13.0428 6.47425 13.2182 6.29627 13.4357 6.29303L15.9349 6.25576C16.1519 6.25253 16.251 6.09111 16.1489 5.89999C16.1489 5.89999 14.3667 1.78793 9.41439 1.83696C4.60922 1.886 1.29943 5.94872 1.32405 10.0001C1.61824 15.4189 5.73696 18.0667 9.51246 17.9686C14.857 17.9686 16.5962 13.7589 16.5962 13.7589H16.5963Z" fill="white"/>
</svg>
